<svg xmlns="http://www.w3.org/2000/svg" viewBox="0 0 64 64" role="img" aria-label="DaFit Canvas">
  <title>DaFit Canvas</title>
  <defs>
    <linearGradient id="dfc-case" x1="0" y1="0" x2="1" y2="1">
      <stop offset="0%" stop-color="#c084fc"/>
      <stop offset="100%" stop-color="#aa3bff"/>
    </linearGradient>
    <radialGradient id="dfc-screen" cx="50%" cy="42%" r="65%">
      <stop offset="0%" stop-color="#221a36"/>
      <stop offset="100%" stop-color="#0d0a16"/>
    </radialGradient>
  </defs>

  <!-- Side button (right edge) -->
  <path fill="url(#dfc-case)"
        d="M48 36h-1v-8h1a2 2 0 0 1 2 2v4a2 2 0 0 1-2 2z"/>

  <!-- Bands (top + bottom straps) -->
  <path fill="url(#dfc-case)"
        d="M42 20H20l2.621-10.485A2 2 0 0 1 24.562 8h12.876a2 2 0 0 1 1.941 1.515zM39.379 54.485A2 2 0 0 1 37.438 56H24.562a2 2 0 0 1-1.941-1.515L20 44h22z"/>

  <!-- Case + bezel -->
  <circle cx="31" cy="32" r="17" fill="url(#dfc-case)"/>
  <circle cx="31" cy="32" r="15.5" fill="#1a1230"/>

  <!-- OLED screen -->
  <circle cx="31" cy="32" r="14" fill="url(#dfc-screen)"/>

  <!-- Pixel-canvas glyph: 2×2 RGB tile sample inside the screen -->
  <g>
    <rect x="25.5" y="26.5" width="5" height="5" rx="0.8" fill="#c084fc"/>
    <rect x="31.5" y="26.5" width="5" height="5" rx="0.8" fill="#47bfff"/>
    <rect x="25.5" y="32.5" width="5" height="5" rx="0.8" fill="#47bfff"/>
    <rect x="31.5" y="32.5" width="5" height="5" rx="0.8" fill="#c084fc"/>
  </g>
</svg>
