<svg xmlns="http://www.w3.org/2000/svg" viewBox="0 0 260 64" role="img" aria-label="DaFit Canvas">
  <title>DaFit Canvas</title>
  <defs>
    <linearGradient id="dfc-wm-case" x1="0" y1="0" x2="1" y2="1">
      <stop offset="0%" stop-color="#c084fc"/>
      <stop offset="100%" stop-color="#aa3bff"/>
    </linearGradient>
    <radialGradient id="dfc-wm-screen" cx="50%" cy="42%" r="65%">
      <stop offset="0%" stop-color="#221a36"/>
      <stop offset="100%" stop-color="#0d0a16"/>
    </radialGradient>
  </defs>

  <!-- Mark -->
  <g>
    <path fill="url(#dfc-wm-case)" d="M48 36h-1v-8h1a2 2 0 0 1 2 2v4a2 2 0 0 1-2 2z"/>
    <path fill="url(#dfc-wm-case)" d="M42 20H20l2.621-10.485A2 2 0 0 1 24.562 8h12.876a2 2 0 0 1 1.941 1.515zM39.379 54.485A2 2 0 0 1 37.438 56H24.562a2 2 0 0 1-1.941-1.515L20 44h22z"/>
    <circle cx="31" cy="32" r="17" fill="url(#dfc-wm-case)"/>
    <circle cx="31" cy="32" r="15.5" fill="#1a1230"/>
    <circle cx="31" cy="32" r="14" fill="url(#dfc-wm-screen)"/>
    <rect x="25.5" y="26.5" width="5" height="5" rx="0.8" fill="#c084fc"/>
    <rect x="31.5" y="26.5" width="5" height="5" rx="0.8" fill="#47bfff"/>
    <rect x="25.5" y="32.5" width="5" height="5" rx="0.8" fill="#47bfff"/>
    <rect x="31.5" y="32.5" width="5" height="5" rx="0.8" fill="#c084fc"/>
  </g>

  <!-- Wordmark -->
  <g font-family="system-ui, 'Segoe UI', Roboto, sans-serif" font-weight="600">
    <text x="68" y="40" font-size="26" fill="currentColor">DaFit</text>
    <text x="138" y="40" font-size="26" fill="#aa3bff">Canvas</text>
  </g>
</svg>
